# xmcd
# 
# Track frame offsets:
#     150
#     22797
#     40767
# 
# Disc length: 764
# 
# Revision: 1
# Processed by: cddbd v1.5.2PL0 Copyright (c) Steve Scherf et al.
# Submitted via: fre:ac v1.0.27
# 
DISCID=1402fa03
DTITLE=The Stranglers - S 22
DYEAR=1990
DGENRE=Top 40
TTITLE0=96 Tears (Extended Version)
TTITLE1=Instead Of This
TTITLE2=Poisonality
EXTD=
EXTT0=
EXTT1=
EXTT2=
PLAYORDER=
